<svg width="167" height="97" viewBox="0 0 167 97" fill="none" xmlns="http://www.w3.org/2000/svg">
<path d="M0.37207 26.9999H7.57207V17.2799H15.3841V11.6639H7.57207V6.33586H18.7681V0.359863H0.37207V26.9999Z" fill="#0D223F"/>
<path d="M20.8822 26.9999H28.0102V15.2639C28.9462 14.5079 30.3142 13.4999 32.3302 13.4999C32.8342 13.4999 33.8422 13.6079 34.1302 13.6439V7.34386H34.0582C30.5302 7.34386 28.8742 9.35986 28.0462 10.6919H28.0102V7.70386H20.8822V26.9999Z" fill="#0D223F"/>
<path d="M45.5268 27.3959C48.7308 27.3959 51.7188 26.6759 54.1668 25.0919L51.6108 20.7719C50.3508 21.5279 48.0828 22.5359 46.0668 22.5359C43.9788 22.5359 42.5748 21.9239 42.2148 19.4039H54.5628V18.3239C54.5628 8.71186 49.0908 7.34386 45.2748 7.34386C41.3508 7.34386 35.1228 9.64786 35.1228 17.3879C35.1228 25.1999 40.2348 27.3959 45.5268 27.3959ZM42.2868 15.3359C42.7188 13.1399 43.8348 12.3119 45.2388 12.3119C46.9308 12.3119 47.9748 13.0319 48.2628 15.3359H42.2868Z" fill="#0D223F"/>
<path d="M63.162 27.2879C66.006 27.2879 67.734 25.8479 68.886 24.1199C68.886 25.0919 69.03 26.6039 69.318 26.9999H76.59C76.158 26.0279 76.014 24.6239 76.014 22.3199V0.359863H68.886V10.0079C67.554 8.09986 65.826 7.34386 63.234 7.34386C58.842 7.34386 55.962 10.9439 55.962 17.5679C55.962 24.1919 58.806 27.2879 63.162 27.2879ZM66.006 21.9959C63.63 21.9959 63.09 19.9079 63.09 17.5319C63.09 14.7959 63.81 13.1759 65.934 13.1759C67.158 13.1759 67.914 13.5359 68.886 14.3999V20.5919C68.31 21.2039 67.122 21.9959 66.006 21.9959Z" fill="#0D223F"/>
<path d="M88.8927 27.3959C92.0967 27.3959 95.0847 26.6759 97.5327 25.0919L94.9767 20.7719C93.7167 21.5279 91.4487 22.5359 89.4327 22.5359C87.3447 22.5359 85.9407 21.9239 85.5807 19.4039H97.9287V18.3239C97.9287 8.71186 92.4567 7.34386 88.6407 7.34386C84.7167 7.34386 78.4887 9.64786 78.4887 17.3879C78.4887 25.1999 83.6007 27.3959 88.8927 27.3959ZM85.6527 15.3359C86.0847 13.1399 87.2007 12.3119 88.6047 12.3119C90.2967 12.3119 91.3407 13.0319 91.6287 15.3359H85.6527Z" fill="#0D223F"/>
<path d="M100.372 26.9999H107.5V15.2639C108.436 14.5079 109.804 13.4999 111.82 13.4999C112.324 13.4999 113.332 13.6079 113.62 13.6439V7.34386H113.548C110.02 7.34386 108.364 9.35986 107.536 10.6919H107.5V7.70386H100.372V26.9999Z" fill="#0D223F"/>
<path d="M115.836 5.83186H122.964V0.359863H115.836V5.83186ZM115.836 26.9999H122.964V7.70386H115.836V26.9999Z" fill="#0D223F"/>
<path d="M135.543 27.3959C141.123 27.3959 143.571 24.2279 144.687 21.3479L138.783 19.3679C138.135 21.8879 136.803 22.4639 135.651 22.4639C133.275 22.4639 132.771 20.2319 132.771 17.4239C132.771 14.3999 133.599 12.4559 135.723 12.4559C137.055 12.4559 138.027 12.9959 138.639 15.3359L144.615 13.4639C143.499 10.2239 141.483 7.34386 135.795 7.34386C131.547 7.34386 125.643 9.35986 125.643 17.3879C125.643 25.3079 131.007 27.3959 135.543 27.3959Z" fill="#0D223F"/>
<path d="M146.647 26.9999H153.775V22.1399L155.395 20.2319L158.959 26.9999H166.267L159.787 15.0479L166.051 7.70386H158.491L153.775 13.7159V0.359863H146.647V26.9999Z" fill="#0D223F"/>
<path d="M0.37207 60.9999H7.57207V51.2799H15.3841V45.6639H7.57207V40.3359H18.7681V34.3599H0.37207V60.9999Z" fill="#0D223F"/>
<path d="M21.0622 39.8319H28.1902V34.3599H21.0622V39.8319ZM21.0622 60.9999H28.1902V41.7039H21.0622V60.9999Z" fill="#0D223F"/>
<path d="M40.0489 61.3959C44.5129 61.3959 48.9049 59.6319 48.9049 54.5199C48.9049 49.8399 44.2248 49.1199 40.9488 48.6879C39.0048 48.4359 37.9968 48.1119 37.9968 47.2119C37.9968 46.3479 38.7888 45.9879 39.9768 45.9879C41.5248 45.9879 43.5768 46.7079 45.6648 47.9319L48.2929 44.0079C45.9529 42.3159 43.5049 41.3439 39.2929 41.3439C34.9369 41.3439 31.4088 43.5399 31.4088 47.8599C31.4088 52.8639 36.0528 53.6199 39.3288 54.0879C41.4168 54.3759 42.3168 54.6999 42.3168 55.7079C42.3168 56.6079 41.2368 56.9679 40.0128 56.9679C37.8168 56.9679 34.9008 56.0679 33.1008 54.6279L30.4729 58.6239C32.5969 60.1719 35.5489 61.3959 40.0489 61.3959Z" fill="#0D223F"/>
<path d="M51.17 60.9999H58.298V48.5439C59.234 47.7879 60.278 47.1759 61.502 47.1759C62.69 47.1759 63.122 47.9319 63.122 49.2639V60.9999H70.25V46.9239C70.25 42.7839 67.73 41.3439 64.706 41.3439C61.142 41.3439 59.126 43.3599 58.298 44.6919V34.3599H51.17V60.9999Z" fill="#0D223F"/>
<path d="M82.9513 61.3959C86.1553 61.3959 89.1433 60.6759 91.5913 59.0919L89.0353 54.7719C87.7753 55.5279 85.5073 56.5359 83.4913 56.5359C81.4033 56.5359 79.9993 55.9239 79.6393 53.4039H91.9873V52.3239C91.9873 42.7119 86.5153 41.3439 82.6993 41.3439C78.7753 41.3439 72.5473 43.6479 72.5473 51.3879C72.5473 59.1999 77.6593 61.3959 82.9513 61.3959ZM79.7113 49.3359C80.1433 47.1399 81.2593 46.3119 82.6633 46.3119C84.3553 46.3119 85.3993 47.0319 85.6873 49.3359H79.7113Z" fill="#0D223F"/>
<path d="M94.4305 60.9999H101.559V49.2639C102.495 48.5079 103.863 47.4999 105.879 47.4999C106.383 47.4999 107.391 47.6079 107.679 47.6439V41.3439H107.607C104.079 41.3439 102.423 43.3599 101.595 44.6919H101.559V41.7039H94.4305V60.9999Z" fill="#0D223F"/>
<path d="M123.76 61.2879C126.208 61.2879 128.26 60.2439 130.06 58.4799C130.06 59.5599 130.24 60.2079 130.456 60.9999H132.184C131.824 60.0279 131.716 58.6239 131.716 56.3199V47.0679C131.716 43.7199 130.204 41.7039 126.82 41.7039C123.868 41.7039 121.708 43.0719 119.764 45.1599L120.916 46.1319C122.428 44.5479 124.264 43.2159 126.748 43.2159C128.908 43.2159 130.06 44.5479 130.06 47.0679V48.5799C122.068 50.2359 119.296 53.1159 119.296 56.6799C119.296 59.4519 120.808 61.2879 123.76 61.2879ZM124.048 59.8119C122.104 59.8119 120.952 58.8039 120.952 56.5719C120.952 54.0159 122.824 51.4959 130.06 49.9479V56.7879C128.44 58.5879 126.28 59.8119 124.048 59.8119Z" fill="#0D223F"/>
<path d="M136.397 60.9999H138.053V46.4559C139.817 44.6559 141.941 43.2159 144.029 43.2159C146.369 43.2159 147.269 44.5119 147.269 47.1399V60.9999H148.925V46.9239C148.925 43.5039 147.449 41.7039 144.209 41.7039C141.833 41.7039 139.493 43.3959 138.053 44.8719V42.0999H136.397V60.9999Z" fill="#0D223F"/>
<path d="M159.268 61.3239C161.68 61.3239 163.336 59.9559 164.632 58.5159C164.632 59.1999 164.812 60.3159 164.992 60.9999H166.756C166.396 60.0279 166.288 58.6239 166.288 56.3199V34.3599H164.632V44.6199C163.336 42.9999 161.5 41.7039 159.304 41.7039C155.596 41.7039 152.68 44.6919 152.68 51.5679C152.68 58.4439 155.56 61.3239 159.268 61.3239ZM159.412 59.8119C156.568 59.8119 154.372 57.2919 154.372 51.5319C154.372 45.6999 156.496 43.2159 159.34 43.2159C161.284 43.2159 162.976 44.4399 164.632 46.3839V56.8239C163.012 58.6239 161.5 59.8119 159.412 59.8119Z" fill="#0D223F"/>
<path d="M0.37207 95.9999H7.50007V87.5039H10.3441C15.5641 87.5039 21.8641 86.3159 21.8641 78.4319C21.8641 70.5479 16.0321 69.3599 10.3441 69.3599H0.37207V95.9999ZM7.50007 82.0319V75.1919H10.5961C13.9441 75.1919 14.8441 76.5959 14.8441 78.6119C14.8441 80.6279 13.9441 82.0319 10.5961 82.0319H7.50007Z" fill="#0D223F"/>
<path d="M28.5035 96.2879C31.3475 96.2879 33.3275 95.1719 34.9115 93.1919C34.9115 94.2719 35.0915 95.2079 35.3435 95.9999H42.3995C42.0035 95.0279 41.8595 93.6239 41.8595 91.3199V84.4439C41.8595 79.0079 39.5915 76.3439 33.9035 76.3439C28.7195 76.3439 25.6955 78.1079 23.9315 79.6919L26.8475 83.7239C28.4675 82.5719 30.5555 81.6359 32.7875 81.6359C34.4435 81.6359 34.9115 82.3199 34.9115 83.2559V83.5079C26.9915 83.8679 22.9955 86.4959 22.9955 90.8159C22.9955 94.5959 25.7315 96.2879 28.5035 96.2879ZM31.5275 90.9959C30.6275 90.9959 29.9435 90.5639 29.9435 89.6279C29.9435 88.1519 31.4555 87.2519 34.9115 87.1439V89.8799C34.2995 90.4559 33.2915 90.9959 31.5275 90.9959Z" fill="#0D223F"/>
<path d="M45.1668 95.9999H52.2948V84.2639C53.2308 83.5079 54.5988 82.4999 56.6148 82.4999C57.1188 82.4999 58.1268 82.6079 58.4148 82.6439V76.3439H58.3428C54.8148 76.3439 53.1588 78.3599 52.3308 79.6919H52.2948V76.7039H45.1668V95.9999Z" fill="#0D223F"/>
<path d="M69.2353 96.2519C70.6393 96.2519 73.2313 96.0359 73.5913 95.9279V90.9599C73.2673 91.0679 72.3313 91.1759 71.7193 91.1759C69.7033 91.1759 69.1993 90.6719 69.1993 88.6199V81.8159H74.1313V76.7039H69.1993V70.2239H62.0713V76.7039H58.9393V81.8159H62.0713V90.2039C62.0713 93.9479 62.6833 96.2519 69.2353 96.2519Z" fill="#0D223F"/>
<path d="M76.4046 95.9999H83.5326V83.5439C84.4686 82.7879 85.5126 82.1759 86.7366 82.1759C87.9246 82.1759 88.3566 82.9319 88.3566 84.2639V95.9999H95.4846V81.9239C95.4846 77.7839 92.9646 76.3439 89.9406 76.3439C86.3766 76.3439 84.3606 78.3599 83.5326 79.6919V76.7039H76.4046V95.9999Z" fill="#0D223F"/>
<path d="M108.15 96.3959C111.354 96.3959 114.342 95.6759 116.79 94.0919L114.234 89.7719C112.974 90.5279 110.706 91.5359 108.69 91.5359C106.602 91.5359 105.198 90.9239 104.838 88.4039H117.186V87.3239C117.186 77.7119 111.714 76.3439 107.898 76.3439C103.974 76.3439 97.7459 78.6479 97.7459 86.3879C97.7459 94.1999 102.858 96.3959 108.15 96.3959ZM104.91 84.3359C105.342 82.1399 106.458 81.3119 107.862 81.3119C109.554 81.3119 110.598 82.0319 110.886 84.3359H104.91Z" fill="#0D223F"/>
<path d="M119.629 95.9999H126.757V84.2639C127.693 83.5079 129.061 82.4999 131.077 82.4999C131.581 82.4999 132.589 82.6079 132.877 82.6439V76.3439H132.805C129.277 76.3439 127.621 78.3599 126.793 79.6919H126.757V76.7039H119.629V95.9999Z" fill="#0D223F"/>
<path d="M143.05 96.3959C147.514 96.3959 151.906 94.6319 151.906 89.5199C151.906 84.8399 147.226 84.1199 143.95 83.6879C142.006 83.4359 140.998 83.1119 140.998 82.2119C140.998 81.3479 141.79 80.9879 142.978 80.9879C144.526 80.9879 146.578 81.7079 148.666 82.9319L151.294 79.0079C148.954 77.3159 146.506 76.3439 142.294 76.3439C137.938 76.3439 134.41 78.5399 134.41 82.8599C134.41 87.8639 139.054 88.6199 142.33 89.0879C144.418 89.3759 145.318 89.6999 145.318 90.7079C145.318 91.6079 144.238 91.9679 143.014 91.9679C140.818 91.9679 137.902 91.0679 136.102 89.6279L133.474 93.6239C135.598 95.1719 138.55 96.3959 143.05 96.3959Z" fill="#0D223F"/>
</svg>
