<svg width="89" height="29" viewBox="0 0 89 29" fill="none" xmlns="http://www.w3.org/2000/svg">
<path d="M0.090332 28.184H7.4372V18.2657H15.4085V12.5352H7.4372V7.09851H18.8616V1.00061H0.090332V28.184Z" fill="#0D223F"/>
<path d="M21.9372 28.184H29.2841V18.2657H37.2554V12.5352H29.2841V7.09851H40.7084V1.00061H21.9372V28.184Z" fill="#0D223F"/>
<path d="M50.1759 28.6983C53.0779 28.6983 55.3554 27.5595 57.0452 25.6493C58.9921 27.5228 60.7186 28.4411 62.8125 28.5513V26.8248C61.3431 26.8248 59.8002 25.9432 58.0737 24.2534C59.69 21.7922 60.6819 18.4127 61.1227 14.7025H59.3594C59.0288 17.8617 58.3309 20.8371 56.9717 23.0412C55.5758 21.4249 54.1064 19.3678 52.6738 17.3106C51.7922 15.9882 50.984 14.7392 50.3595 13.5637C53.4819 11.3597 56.1268 9.00869 56.1268 5.40873C56.1268 2.65365 54.6942 0.486328 51.5718 0.486328C48.1555 0.486328 46.429 3.16793 46.429 6.58422C46.429 8.86175 47.0534 11.0291 48.1555 13.2331C45.2167 15.4005 42.6453 18.0086 42.6453 21.8657C42.6453 26.2004 45.1065 28.6983 50.1759 28.6983ZM49.6248 12.1311C48.6697 10.1475 48.1922 8.38421 48.1922 6.40055C48.1922 3.97609 49.2208 2.10264 51.535 2.10264C53.6289 2.10264 54.3636 3.68221 54.3636 5.51893C54.3636 8.38421 52.1962 10.3311 49.6248 12.1311ZM50.2493 27.082C46.2085 27.082 44.4453 24.9881 44.4453 21.829C44.4453 18.8535 46.3187 16.5392 48.8902 14.629C49.5881 15.8045 50.3595 16.9433 51.2044 18.1923C52.8942 20.58 54.437 22.7473 55.9431 24.4738C54.5105 26.1636 52.6003 27.082 50.2493 27.082Z" fill="#0D223F"/>
<path d="M66.2049 28.184H73.4783V19.5147H76.3803C81.7068 19.5147 88.1353 18.3025 88.1353 10.2577C88.1353 2.21284 82.1844 1.00061 76.3803 1.00061H66.2049V28.184ZM73.4783 13.9311V6.95157H76.6375C80.0538 6.95157 80.9721 8.38421 80.9721 10.4413C80.9721 12.4984 80.0538 13.9311 76.6375 13.9311H73.4783Z" fill="#0D223F"/>
</svg>
